<svg xmlns="http://www.w3.org/2000/svg" data-name="Layer 1" viewBox="0 0 100 100" x="0px" y="0px"><title>Artboard 13</title><circle cx="46.64" cy="44.38" r="5.62" fill="#ccc" /><circle cx="65.39" cy="44.38" r="5.62" fill="#ccc" /><path fill="#ccc" d="M37.27,78.13a1.87,1.87,0,1,1,3.75,0,9.37,9.37,0,1,0,18.75,0,1.87,1.87,0,1,1,3.75,0,9.37,9.37,0,1,0,18.75,0V44.38a31.87,31.87,0,1,0-63.75,0V78.13a9.37,9.37,0,1,0,18.75,0ZM26,78.13V44.38a24.38,24.38,0,1,1,48.75,0V78.13a1.87,1.87,0,1,1-3.75,0,9.37,9.37,0,1,0-18.75,0,1.87,1.87,0,1,1-3.75,0,9.37,9.37,0,1,0-18.75,0,1.87,1.87,0,1,1-3.75,0Z"/></svg>